<?xml version="1.0" encoding="UTF-8" standalone="no"?>
<!DOCTYPE svg PUBLIC "-//W3C//DTD SVG 1.1//EN" "http://www.w3.org/Graphics/SVG/1.1/DTD/svg11.dtd">
<svg version="1.1" xmlns="http://www.w3.org/2000/svg" xmlns:xlink="http://www.w3.org/1999/xlink" preserveAspectRatio="xMidYMid meet" viewBox="0 0 640 640" width="640" height="640"><defs><path d="M242.14 543.68C242.14 556 189.18 566 123.94 566C58.7 566 5.74 556 5.74 543.68C5.74 531.36 58.7 521.36 123.94 521.36C189.18 521.36 242.14 531.36 242.14 543.68Z" id="dKuRQofWF"></path><path d="M215.75 281.8C225.19 281.8 232.85 289.46 232.85 298.91C232.85 322.86 232.85 377.61 232.85 401.56C232.85 411.01 225.19 418.67 215.75 418.67C212.32 418.67 219.17 418.67 215.75 418.67C206.3 418.67 198.64 411.01 198.64 401.56C198.64 377.61 198.64 322.86 198.64 298.91C198.64 289.46 206.3 281.8 215.75 281.8C219.17 281.8 212.32 281.8 215.75 281.8Z" id="b22p1iDND"></path><path d="M224.73 400.22C229.29 399 233.98 401.71 235.2 406.27C239.03 420.54 248.29 455.09 252.11 469.36C253.33 473.93 250.62 478.62 246.06 479.84C244.41 480.28 247.71 479.4 246.06 479.84C241.5 481.06 236.81 478.36 235.59 473.79C231.76 459.52 222.5 424.97 218.68 410.7C217.46 406.13 220.16 401.44 224.73 400.22C226.38 399.78 223.07 400.66 224.73 400.22Z" id="l1jJLeFP"></path><path d="M201.19 403.7C205.75 402.47 210.44 405.18 211.67 409.74C215.49 424.02 224.75 458.57 228.57 472.84C229.8 477.4 227.09 482.09 222.52 483.32C220.87 483.76 224.18 482.87 222.52 483.32C217.96 484.54 213.27 481.83 212.05 477.27C208.22 463 198.97 428.44 195.14 414.17C193.92 409.61 196.63 404.92 201.19 403.7C202.84 403.25 199.54 404.14 201.19 403.7Z" id="b88vpnNu1"></path><path d="M221.19 467.97C225.87 468.6 229.16 472.9 228.54 477.58C226.59 492.23 221.86 527.69 219.91 542.33C219.29 547.02 214.99 550.31 210.3 549.68C208.61 549.46 212 549.91 210.3 549.68C205.62 549.06 202.33 544.76 202.95 540.07C204.9 525.43 209.63 489.97 211.58 475.32C212.2 470.64 216.51 467.35 221.19 467.97C222.88 468.2 219.49 467.75 221.19 467.97Z" id="c9kBC0H8Z"></path><path d="M247.18 467.97C251.86 468.6 255.15 472.9 254.53 477.58C252.58 492.23 247.85 527.69 245.9 542.33C245.28 547.02 240.97 550.31 236.29 549.68C234.6 549.46 237.99 549.91 236.29 549.68C231.61 549.06 228.32 544.76 228.94 540.07C230.89 525.43 235.62 489.97 237.57 475.32C238.19 470.64 242.49 467.35 247.18 467.97C248.87 468.2 245.48 467.75 247.18 467.97Z" id="b2tR8qShN4"></path><path d="M301.44 256.59C303.59 260.79 301.94 265.95 297.73 268.11C284.59 274.85 252.77 291.19 239.62 297.94C235.42 300.1 230.27 298.44 228.11 294.24C227.33 292.72 228.89 295.76 228.11 294.24C225.95 290.04 227.61 284.88 231.81 282.72C244.95 275.97 276.78 259.64 289.92 252.89C294.12 250.73 299.28 252.39 301.44 256.59C302.22 258.11 300.65 255.07 301.44 256.59Z" id="ax0mbshGI"></path><path d="M297.7 211.26C300.57 211.26 302.9 213.59 302.9 216.46C302.9 231.77 302.9 272.49 302.9 287.8C302.9 290.67 300.57 292.99 297.7 292.99C295.52 292.99 294.17 292.99 291.99 292.99C289.12 292.99 286.8 290.67 286.8 287.8C286.8 272.49 286.8 231.77 286.8 216.46C286.8 213.59 289.12 211.26 291.99 211.26C294.17 211.26 295.52 211.26 297.7 211.26Z" id="a3BsUsLMq"></path><path d="M274.99 210.93L283.26 216.61L306.02 216.61L311.35 210.93L316.67 217.92L321.99 217.92L321.99 198.34L316.67 198.34L311.35 203.95L306.02 196.96L279.42 196.96L260.64 210.93L274.99 210.93Z" id="c2YplO8GK"></path><path d="M611.99 83.11C617.51 83.11 621.99 87.59 621.99 93.11C621.99 179.11 621.99 427.11 621.99 513.11C621.99 518.64 617.51 523.11 611.99 523.11C555.99 523.11 397.99 523.11 341.99 523.11C336.46 523.11 331.99 518.64 331.99 513.11C331.99 427.11 331.99 179.11 331.99 93.11C331.99 87.59 336.46 83.11 341.99 83.11C397.99 83.11 555.99 83.11 611.99 83.11Z" id="c2FFHS68v0"></path><path d="M342.54 114.75L611.43 114.75L611.43 508.83L342.54 508.83L342.54 114.75Z" id="a27TQ8ykxQ"></path><path d="M533.54 122.11C539.06 122.11 543.54 126.58 543.54 132.11C543.54 135.83 543.54 136.99 543.54 140.71C543.54 146.23 539.06 150.71 533.54 150.71C496.47 150.71 395.27 150.71 358.2 150.71C352.68 150.71 348.2 146.23 348.2 140.71C348.2 136.99 348.2 135.83 348.2 132.11C348.2 126.58 352.68 122.11 358.2 122.11C395.27 122.11 496.47 122.11 533.54 122.11Z" id="e1QMZ4YYr5"></path><path d="M533.54 156.69C539.06 156.69 543.54 161.17 543.54 166.69C543.54 199.51 543.54 287.96 543.54 320.78C543.54 326.3 539.06 330.78 533.54 330.78C496.47 330.78 395.27 330.78 358.2 330.78C352.68 330.78 348.2 326.3 348.2 320.78C348.2 287.96 348.2 199.51 348.2 166.69C348.2 161.17 352.68 156.69 358.2 156.69C395.27 156.69 496.47 156.69 533.54 156.69Z" id="d127YWVAC8"></path><path d="M533.54 332.44C539.06 332.44 543.54 336.92 543.54 342.44C543.54 372.64 543.54 453.25 543.54 483.45C543.54 488.97 539.06 493.45 533.54 493.45C496.47 493.45 395.27 493.45 358.2 493.45C352.68 493.45 348.2 488.97 348.2 483.45C348.2 453.25 348.2 372.64 348.2 342.44C348.2 336.92 352.68 332.44 358.2 332.44C395.27 332.44 496.47 332.44 533.54 332.44Z" id="asn1XlieI"></path><path d="M605.97 122.11C607.71 122.11 609.11 123.51 609.11 125.25C609.11 198.89 609.11 416.67 609.11 490.31C609.11 492.05 607.71 493.45 605.97 493.45C594.33 493.45 562.55 493.45 550.91 493.45C549.17 493.45 547.77 492.05 547.77 490.31C547.77 416.67 547.77 198.89 547.77 125.25C547.77 123.51 549.17 122.11 550.91 122.11C562.55 122.11 594.33 122.11 605.97 122.11Z" id="c1RwUUbWK2"></path><path d="M353.86 95.07C353.86 98.2 351.32 100.73 348.2 100.73C345.07 100.73 342.54 98.2 342.54 95.07C342.54 91.95 345.07 89.41 348.2 89.41C351.32 89.41 353.86 91.95 353.86 95.07Z" id="aIPC9BSIl"></path><path d="M369.58 95.07C369.58 98.2 367.04 100.73 363.92 100.73C360.8 100.73 358.26 98.2 358.26 95.07C358.26 91.95 360.8 89.41 363.92 89.41C367.04 89.41 369.58 91.95 369.58 95.07Z" id="b5QHToWkkt"></path><path d="M385.3 95.07C385.3 98.2 382.77 100.73 379.64 100.73C376.52 100.73 373.98 98.2 373.98 95.07C373.98 91.95 376.52 89.41 379.64 89.41C382.77 89.41 385.3 91.95 385.3 95.07Z" id="asU0t6NFt"></path><path d="M247.93 243.52C247.93 263.43 231.77 279.59 211.86 279.59C191.95 279.59 175.78 263.43 175.78 243.52C175.78 223.61 191.95 207.44 211.86 207.44C231.77 207.44 247.93 223.61 247.93 243.52Z" id="b1Uqkf02hg"></path></defs><g><g><g><use xlink:href="#dKuRQofWF" opacity="1" fill="#4b4b4b" fill-opacity="0.39"></use></g><g><use xlink:href="#b22p1iDND" opacity="1" fill="#24508a" fill-opacity="1"></use></g><g><use xlink:href="#l1jJLeFP" opacity="1" fill="#24508a" fill-opacity="1"></use></g><g><use xlink:href="#b88vpnNu1" opacity="1" fill="#24508a" fill-opacity="1"></use></g><g><use xlink:href="#c9kBC0H8Z" opacity="1" fill="#173760" fill-opacity="1"></use></g><g><use xlink:href="#b2tR8qShN4" opacity="1" fill="#173760" fill-opacity="1"></use></g><g><use xlink:href="#ax0mbshGI" opacity="1" fill="#173760" fill-opacity="1"></use></g><g><use xlink:href="#a3BsUsLMq" opacity="1" fill="#633d1a" fill-opacity="1"></use></g><g><use xlink:href="#c2YplO8GK" opacity="1" fill="#868686" fill-opacity="1"></use></g><g><g><use xlink:href="#c2FFHS68v0" opacity="1" fill="#999999" fill-opacity="1"></use></g><g><use xlink:href="#a27TQ8ykxQ" opacity="1" fill="#d9e9e7" fill-opacity="1"></use></g><g><use xlink:href="#e1QMZ4YYr5" opacity="1" fill="#a86868" fill-opacity="1"></use></g><g><use xlink:href="#d127YWVAC8" opacity="1" fill="#91a868" fill-opacity="1"></use></g><g><use xlink:href="#asn1XlieI" opacity="1" fill="#a89e68" fill-opacity="1"></use></g><g><use xlink:href="#c1RwUUbWK2" opacity="1" fill="#68a871" fill-opacity="1"></use></g><g><use xlink:href="#aIPC9BSIl" opacity="1" fill="#ea4141" fill-opacity="1"></use></g><g><use xlink:href="#b5QHToWkkt" opacity="1" fill="#e8ea41" fill-opacity="1"></use></g><g><use xlink:href="#asU0t6NFt" opacity="1" fill="#41ea53" fill-opacity="1"></use></g></g><g><use xlink:href="#b1Uqkf02hg" opacity="1" fill="#24508a" fill-opacity="1"></use></g></g></g></svg>